%TF.GenerationSoftware,KiCad,Pcbnew,9.0.1*%
%TF.CreationDate,2025-07-03T13:01:24+03:00*%
%TF.ProjectId,Fan,46616e2e-6b69-4636-9164-5f7063625858,rev?*%
%TF.SameCoordinates,Original*%
%TF.FileFunction,Paste,Top*%
%TF.FilePolarity,Positive*%
%FSLAX46Y46*%
G04 Gerber Fmt 4.6, Leading zero omitted, Abs format (unit mm)*
G04 Created by KiCad (PCBNEW 9.0.1) date 2025-07-03 13:01:24*
%MOMM*%
%LPD*%
G01*
G04 APERTURE LIST*
G04 Aperture macros list*
%AMRoundRect*
0 Rectangle with rounded corners*
0 $1 Rounding radius*
0 $2 $3 $4 $5 $6 $7 $8 $9 X,Y pos of 4 corners*
0 Add a 4 corners polygon primitive as box body*
4,1,4,$2,$3,$4,$5,$6,$7,$8,$9,$2,$3,0*
0 Add four circle primitives for the rounded corners*
1,1,$1+$1,$2,$3*
1,1,$1+$1,$4,$5*
1,1,$1+$1,$6,$7*
1,1,$1+$1,$8,$9*
0 Add four rect primitives between the rounded corners*
20,1,$1+$1,$2,$3,$4,$5,0*
20,1,$1+$1,$4,$5,$6,$7,0*
20,1,$1+$1,$6,$7,$8,$9,0*
20,1,$1+$1,$8,$9,$2,$3,0*%
%AMFreePoly0*
4,1,33,0.290285,0.956940,0.471397,0.881921,0.634393,0.773010,0.773010,0.634393,0.881921,0.471397,0.956940,0.290285,0.995185,0.098017,0.995185,-0.098017,0.956940,-0.290285,0.881921,-0.471397,0.773010,-0.634393,0.634393,-0.773010,0.471397,-0.881921,0.290285,-0.956940,0.098017,-0.995185,-0.098017,-0.995185,-0.290285,-0.956940,-0.471397,-0.881921,-0.634393,-0.773010,-0.773010,-0.634393,
-0.881921,-0.471397,-0.956940,-0.290285,-0.995185,-0.098017,-0.995185,0.098017,-0.956940,0.290285,-0.881921,0.471397,-0.773010,0.634393,-0.634393,0.773010,-0.471397,0.881921,-0.290285,0.956940,-0.098017,0.995185,0.098017,0.995185,0.290285,0.956940,0.290285,0.956940,$1*%
G04 Aperture macros list end*
%ADD10FreePoly0,0.000000*%
%ADD11R,1.969999X0.558000*%
%ADD12RoundRect,0.112500X0.187500X0.112500X-0.187500X0.112500X-0.187500X-0.112500X0.187500X-0.112500X0*%
%ADD13RoundRect,0.125000X0.125000X0.125000X-0.125000X0.125000X-0.125000X-0.125000X0.125000X-0.125000X0*%
%ADD14RoundRect,0.112500X-0.112500X0.187500X-0.112500X-0.187500X0.112500X-0.187500X0.112500X0.187500X0*%
%ADD15RoundRect,0.112500X-0.187500X-0.112500X0.187500X-0.112500X0.187500X0.112500X-0.187500X0.112500X0*%
%ADD16RoundRect,0.250000X0.312500X0.625000X-0.312500X0.625000X-0.312500X-0.625000X0.312500X-0.625000X0*%
%ADD17RoundRect,0.250000X-0.262500X-0.450000X0.262500X-0.450000X0.262500X0.450000X-0.262500X0.450000X0*%
%ADD18RoundRect,0.250000X0.625000X-0.312500X0.625000X0.312500X-0.625000X0.312500X-0.625000X-0.312500X0*%
%ADD19RoundRect,0.250000X-0.450000X0.262500X-0.450000X-0.262500X0.450000X-0.262500X0.450000X0.262500X0*%
%ADD20RoundRect,0.250000X-0.625000X0.312500X-0.625000X-0.312500X0.625000X-0.312500X0.625000X0.312500X0*%
%ADD21RoundRect,0.250000X0.262500X0.450000X-0.262500X0.450000X-0.262500X-0.450000X0.262500X-0.450000X0*%
G04 APERTURE END LIST*
D10*
%TO.C,TP5*%
X113270000Y-65020000D03*
%TD*%
D11*
%TO.C,U2*%
X120963800Y-57690000D03*
X120963800Y-58960000D03*
X120963800Y-60230000D03*
X120963800Y-61500000D03*
X120963800Y-62770000D03*
X120963800Y-64040000D03*
X120963800Y-65310000D03*
X116036200Y-65310000D03*
X116036200Y-64040000D03*
X116036200Y-62770000D03*
X116036200Y-61500000D03*
X116036200Y-60230000D03*
X116036200Y-58960000D03*
X116036200Y-57690000D03*
%TD*%
D10*
%TO.C,TP2*%
X112250000Y-53500000D03*
%TD*%
D12*
%TO.C,D1*%
X122863800Y-58460000D03*
X124963800Y-58460000D03*
%TD*%
D10*
%TO.C,TP4*%
X110770000Y-65020000D03*
%TD*%
%TO.C,TP3*%
X115500000Y-53471914D03*
%TD*%
%TO.C,TP1*%
X124463800Y-55710000D03*
%TD*%
D13*
%TO.C,DZ1*%
X113350000Y-59000000D03*
X111150000Y-59000000D03*
%TD*%
D14*
%TO.C,D4*%
X109750000Y-59000000D03*
X109750000Y-61100000D03*
%TD*%
D15*
%TO.C,D2*%
X122913800Y-60460000D03*
X125013800Y-60460000D03*
%TD*%
D12*
%TO.C,D3*%
X125013800Y-63210000D03*
X122913800Y-63210000D03*
%TD*%
D16*
%TO.C,R22*%
X104675000Y-57250000D03*
X101750000Y-57250000D03*
%TD*%
D17*
%TO.C,R6*%
X126551300Y-60960000D03*
X128376300Y-60960000D03*
%TD*%
D18*
%TO.C,R23*%
X105500000Y-62750000D03*
X105500000Y-59825000D03*
%TD*%
D17*
%TO.C,R3*%
X123051300Y-65210000D03*
X124876300Y-65210000D03*
%TD*%
D19*
%TO.C,R7*%
X126750000Y-62837500D03*
X126750000Y-64662500D03*
%TD*%
D20*
%TO.C,R21*%
X102000000Y-60000000D03*
X102000000Y-62925000D03*
%TD*%
%TO.C,R1*%
X126963800Y-56035000D03*
X126963800Y-58960000D03*
%TD*%
D21*
%TO.C,R8*%
X113662500Y-61250000D03*
X111837500Y-61250000D03*
%TD*%
D16*
%TO.C,R24*%
X108425000Y-65000000D03*
X105500000Y-65000000D03*
%TD*%
M02*
