%TF.GenerationSoftware,KiCad,Pcbnew,9.0.1*%
%TF.CreationDate,2025-07-04T12:29:26+03:00*%
%TF.ProjectId,Fan,46616e2e-6b69-4636-9164-5f7063625858,rev?*%
%TF.SameCoordinates,Original*%
%TF.FileFunction,Legend,Bot*%
%TF.FilePolarity,Positive*%
%FSLAX46Y46*%
G04 Gerber Fmt 4.6, Leading zero omitted, Abs format (unit mm)*
G04 Created by KiCad (PCBNEW 9.0.1) date 2025-07-04 12:29:26*
%MOMM*%
%LPD*%
G01*
G04 APERTURE LIST*
%ADD10C,0.150000*%
%ADD11C,0.093750*%
%ADD12C,0.100000*%
%ADD13C,0.120000*%
G04 APERTURE END LIST*
D10*
X126984580Y-54733333D02*
X127032200Y-54685714D01*
X127032200Y-54685714D02*
X127079819Y-54542857D01*
X127079819Y-54542857D02*
X127079819Y-54447619D01*
X127079819Y-54447619D02*
X127032200Y-54304762D01*
X127032200Y-54304762D02*
X126936961Y-54209524D01*
X126936961Y-54209524D02*
X126841723Y-54161905D01*
X126841723Y-54161905D02*
X126651247Y-54114286D01*
X126651247Y-54114286D02*
X126508390Y-54114286D01*
X126508390Y-54114286D02*
X126317914Y-54161905D01*
X126317914Y-54161905D02*
X126222676Y-54209524D01*
X126222676Y-54209524D02*
X126127438Y-54304762D01*
X126127438Y-54304762D02*
X126079819Y-54447619D01*
X126079819Y-54447619D02*
X126079819Y-54542857D01*
X126079819Y-54542857D02*
X126127438Y-54685714D01*
X126127438Y-54685714D02*
X126175057Y-54733333D01*
X127079819Y-55685714D02*
X127079819Y-55114286D01*
X127079819Y-55400000D02*
X126079819Y-55400000D01*
X126079819Y-55400000D02*
X126222676Y-55304762D01*
X126222676Y-55304762D02*
X126317914Y-55209524D01*
X126317914Y-55209524D02*
X126365533Y-55114286D01*
X127284580Y-63883333D02*
X127332200Y-63835714D01*
X127332200Y-63835714D02*
X127379819Y-63692857D01*
X127379819Y-63692857D02*
X127379819Y-63597619D01*
X127379819Y-63597619D02*
X127332200Y-63454762D01*
X127332200Y-63454762D02*
X127236961Y-63359524D01*
X127236961Y-63359524D02*
X127141723Y-63311905D01*
X127141723Y-63311905D02*
X126951247Y-63264286D01*
X126951247Y-63264286D02*
X126808390Y-63264286D01*
X126808390Y-63264286D02*
X126617914Y-63311905D01*
X126617914Y-63311905D02*
X126522676Y-63359524D01*
X126522676Y-63359524D02*
X126427438Y-63454762D01*
X126427438Y-63454762D02*
X126379819Y-63597619D01*
X126379819Y-63597619D02*
X126379819Y-63692857D01*
X126379819Y-63692857D02*
X126427438Y-63835714D01*
X126427438Y-63835714D02*
X126475057Y-63883333D01*
X126379819Y-64216667D02*
X126379819Y-64835714D01*
X126379819Y-64835714D02*
X126760771Y-64502381D01*
X126760771Y-64502381D02*
X126760771Y-64645238D01*
X126760771Y-64645238D02*
X126808390Y-64740476D01*
X126808390Y-64740476D02*
X126856009Y-64788095D01*
X126856009Y-64788095D02*
X126951247Y-64835714D01*
X126951247Y-64835714D02*
X127189342Y-64835714D01*
X127189342Y-64835714D02*
X127284580Y-64788095D01*
X127284580Y-64788095D02*
X127332200Y-64740476D01*
X127332200Y-64740476D02*
X127379819Y-64645238D01*
X127379819Y-64645238D02*
X127379819Y-64359524D01*
X127379819Y-64359524D02*
X127332200Y-64264286D01*
X127332200Y-64264286D02*
X127284580Y-64216667D01*
D11*
X107482089Y-54446428D02*
X106732089Y-54446428D01*
X106732089Y-54446428D02*
X106732089Y-54624999D01*
X106732089Y-54624999D02*
X106767803Y-54732142D01*
X106767803Y-54732142D02*
X106839232Y-54803571D01*
X106839232Y-54803571D02*
X106910660Y-54839285D01*
X106910660Y-54839285D02*
X107053517Y-54874999D01*
X107053517Y-54874999D02*
X107160660Y-54874999D01*
X107160660Y-54874999D02*
X107303517Y-54839285D01*
X107303517Y-54839285D02*
X107374946Y-54803571D01*
X107374946Y-54803571D02*
X107446375Y-54732142D01*
X107446375Y-54732142D02*
X107482089Y-54624999D01*
X107482089Y-54624999D02*
X107482089Y-54446428D01*
X106732089Y-55553571D02*
X106732089Y-55196428D01*
X106732089Y-55196428D02*
X107089232Y-55160714D01*
X107089232Y-55160714D02*
X107053517Y-55196428D01*
X107053517Y-55196428D02*
X107017803Y-55267857D01*
X107017803Y-55267857D02*
X107017803Y-55446428D01*
X107017803Y-55446428D02*
X107053517Y-55517857D01*
X107053517Y-55517857D02*
X107089232Y-55553571D01*
X107089232Y-55553571D02*
X107160660Y-55589285D01*
X107160660Y-55589285D02*
X107339232Y-55589285D01*
X107339232Y-55589285D02*
X107410660Y-55553571D01*
X107410660Y-55553571D02*
X107446375Y-55517857D01*
X107446375Y-55517857D02*
X107482089Y-55446428D01*
X107482089Y-55446428D02*
X107482089Y-55267857D01*
X107482089Y-55267857D02*
X107446375Y-55196428D01*
X107446375Y-55196428D02*
X107410660Y-55160714D01*
%TO.C,C1*%
D12*
X118000000Y-52150000D02*
X131250000Y-52150000D01*
X131250000Y-57400000D01*
X118000000Y-57400000D01*
X118000000Y-52150000D01*
%TO.C,C3*%
X118300000Y-61150000D02*
X131550000Y-61150000D01*
X131550000Y-66400000D01*
X118300000Y-66400000D01*
X118300000Y-61150000D01*
D13*
%TO.C,D5*%
X112170000Y-56850000D02*
X108570000Y-56850000D01*
X108531522Y-56838478D02*
G75*
G02*
X110370000Y-52399999I1838478J1838478D01*
G01*
X110370000Y-52400000D02*
G75*
G02*
X112208478Y-56838478I0J-2600000D01*
G01*
%TD*%
M02*
