%TF.GenerationSoftware,KiCad,Pcbnew,9.0.1*%
%TF.CreationDate,2025-07-04T12:29:26+03:00*%
%TF.ProjectId,Fan,46616e2e-6b69-4636-9164-5f7063625858,rev?*%
%TF.SameCoordinates,Original*%
%TF.FileFunction,Soldermask,Top*%
%TF.FilePolarity,Negative*%
%FSLAX46Y46*%
G04 Gerber Fmt 4.6, Leading zero omitted, Abs format (unit mm)*
G04 Created by KiCad (PCBNEW 9.0.1) date 2025-07-04 12:29:26*
%MOMM*%
%LPD*%
G01*
G04 APERTURE LIST*
G04 Aperture macros list*
%AMRoundRect*
0 Rectangle with rounded corners*
0 $1 Rounding radius*
0 $2 $3 $4 $5 $6 $7 $8 $9 X,Y pos of 4 corners*
0 Add a 4 corners polygon primitive as box body*
4,1,4,$2,$3,$4,$5,$6,$7,$8,$9,$2,$3,0*
0 Add four circle primitives for the rounded corners*
1,1,$1+$1,$2,$3*
1,1,$1+$1,$4,$5*
1,1,$1+$1,$6,$7*
1,1,$1+$1,$8,$9*
0 Add four rect primitives between the rounded corners*
20,1,$1+$1,$2,$3,$4,$5,0*
20,1,$1+$1,$4,$5,$6,$7,0*
20,1,$1+$1,$6,$7,$8,$9,0*
20,1,$1+$1,$8,$9,$2,$3,0*%
%AMFreePoly0*
4,1,33,0.261256,0.861246,0.424257,0.793729,0.570954,0.695709,0.695709,0.570954,0.793729,0.424257,0.861246,0.261256,0.895666,0.088215,0.895666,-0.088215,0.861246,-0.261256,0.793729,-0.424257,0.695709,-0.570954,0.570954,-0.695709,0.424257,-0.793729,0.261256,-0.861246,0.088215,-0.895666,-0.088215,-0.895666,-0.261256,-0.861246,-0.424257,-0.793729,-0.570954,-0.695709,-0.695709,-0.570954,
-0.793729,-0.424257,-0.861246,-0.261256,-0.895666,-0.088215,-0.895666,0.088215,-0.861246,0.261256,-0.793729,0.424257,-0.695709,0.570954,-0.570954,0.695709,-0.424257,0.793729,-0.261256,0.861246,-0.088215,0.895666,0.088215,0.895666,0.261256,0.861246,0.261256,0.861246,$1*%
G04 Aperture macros list end*
%ADD10C,1.600000*%
%ADD11RoundRect,0.250000X0.312500X0.625000X-0.312500X0.625000X-0.312500X-0.625000X0.312500X-0.625000X0*%
%ADD12RoundRect,0.125000X0.125000X0.125000X-0.125000X0.125000X-0.125000X-0.125000X0.125000X-0.125000X0*%
%ADD13RoundRect,0.112500X-0.112500X0.187500X-0.112500X-0.187500X0.112500X-0.187500X0.112500X0.187500X0*%
%ADD14RoundRect,0.112500X-0.187500X-0.112500X0.187500X-0.112500X0.187500X0.112500X-0.187500X0.112500X0*%
%ADD15RoundRect,0.112500X0.187500X0.112500X-0.187500X0.112500X-0.187500X-0.112500X0.187500X-0.112500X0*%
%ADD16FreePoly0,0.000000*%
%ADD17R,1.969999X0.558000*%
%ADD18RoundRect,0.250000X-0.450000X0.262500X-0.450000X-0.262500X0.450000X-0.262500X0.450000X0.262500X0*%
%ADD19RoundRect,0.250000X0.625000X-0.312500X0.625000X0.312500X-0.625000X0.312500X-0.625000X-0.312500X0*%
%ADD20RoundRect,0.250000X0.450000X-0.262500X0.450000X0.262500X-0.450000X0.262500X-0.450000X-0.262500X0*%
%ADD21RoundRect,0.250000X-0.625000X0.312500X-0.625000X-0.312500X0.625000X-0.312500X0.625000X0.312500X0*%
%ADD22RoundRect,0.250000X0.262500X0.450000X-0.262500X0.450000X-0.262500X-0.450000X0.262500X-0.450000X0*%
%ADD23R,1.600000X1.600000*%
%ADD24R,1.050000X1.500000*%
%ADD25O,1.050000X1.500000*%
G04 APERTURE END LIST*
D10*
%TO.C,C2*%
X101625000Y-65275000D03*
X101625000Y-63275000D03*
X101625000Y-53275000D03*
%TD*%
D11*
%TO.C,R22*%
X101687500Y-55875000D03*
X104612500Y-55875000D03*
%TD*%
D12*
%TO.C,DZ1*%
X111650000Y-58050000D03*
X109450000Y-58050000D03*
%TD*%
D13*
%TO.C,D4*%
X108600000Y-59650000D03*
X108600000Y-61750000D03*
%TD*%
D14*
%TO.C,D2*%
X125500000Y-56675000D03*
X127600000Y-56675000D03*
%TD*%
D15*
%TO.C,D3*%
X127600000Y-63575000D03*
X125500000Y-63575000D03*
%TD*%
D16*
%TO.C,HS2*%
X114225000Y-55975000D03*
%TD*%
D13*
%TO.C,D1*%
X123900000Y-54650000D03*
X123900000Y-56750000D03*
%TD*%
D16*
%TO.C,TP2*%
X107350000Y-53500000D03*
%TD*%
%TO.C,TP4*%
X107475000Y-65450000D03*
%TD*%
D17*
%TO.C,U2*%
X116673700Y-55500000D03*
X116673700Y-56770000D03*
X116673700Y-58040000D03*
X116673700Y-59310000D03*
X116673700Y-60580000D03*
X116673700Y-61850000D03*
X116673700Y-63120000D03*
X121601300Y-63120000D03*
X121601300Y-61850000D03*
X121601300Y-60580000D03*
X121601300Y-59310000D03*
X121601300Y-58040000D03*
X121601300Y-56770000D03*
X121601300Y-55500000D03*
%TD*%
D18*
%TO.C,R6*%
X127875000Y-59962500D03*
X127875000Y-61787500D03*
%TD*%
D16*
%TO.C,TP1*%
X131800000Y-60025000D03*
%TD*%
%TO.C,HS1*%
X114325000Y-53150000D03*
%TD*%
%TO.C,TP3*%
X116575000Y-53150000D03*
%TD*%
D19*
%TO.C,R23*%
X105275000Y-60800000D03*
X105275000Y-57875000D03*
%TD*%
D20*
%TO.C,R3*%
X123900000Y-62425000D03*
X123900000Y-60600000D03*
%TD*%
D18*
%TO.C,R7*%
X125900000Y-58450000D03*
X125900000Y-60275000D03*
%TD*%
D21*
%TO.C,R21*%
X101850000Y-58462500D03*
X101850000Y-61387500D03*
%TD*%
D11*
%TO.C,R1*%
X131962500Y-57800000D03*
X129037500Y-57800000D03*
%TD*%
D16*
%TO.C,TP5*%
X109600000Y-65450000D03*
%TD*%
D22*
%TO.C,R8*%
X112212500Y-60000000D03*
X110387500Y-60000000D03*
%TD*%
D19*
%TO.C,R24*%
X105275000Y-65450000D03*
X105275000Y-62525000D03*
%TD*%
D23*
%TO.C,C1*%
X130375000Y-53775000D03*
D10*
X130375000Y-55775000D03*
%TD*%
D23*
%TO.C,C3*%
X130675000Y-62775000D03*
D10*
X130675000Y-64775000D03*
%TD*%
D24*
%TO.C,D5*%
X111640000Y-55000000D03*
D25*
X110370000Y-55000000D03*
X109100000Y-55000000D03*
%TD*%
M02*
