%TF.GenerationSoftware,KiCad,Pcbnew,9.0.1*%
%TF.CreationDate,2025-07-03T13:01:24+03:00*%
%TF.ProjectId,Fan,46616e2e-6b69-4636-9164-5f7063625858,rev?*%
%TF.SameCoordinates,Original*%
%TF.FileFunction,Copper,L1,Top*%
%TF.FilePolarity,Positive*%
%FSLAX46Y46*%
G04 Gerber Fmt 4.6, Leading zero omitted, Abs format (unit mm)*
G04 Created by KiCad (PCBNEW 9.0.1) date 2025-07-03 13:01:24*
%MOMM*%
%LPD*%
G01*
G04 APERTURE LIST*
G04 Aperture macros list*
%AMRoundRect*
0 Rectangle with rounded corners*
0 $1 Rounding radius*
0 $2 $3 $4 $5 $6 $7 $8 $9 X,Y pos of 4 corners*
0 Add a 4 corners polygon primitive as box body*
4,1,4,$2,$3,$4,$5,$6,$7,$8,$9,$2,$3,0*
0 Add four circle primitives for the rounded corners*
1,1,$1+$1,$2,$3*
1,1,$1+$1,$4,$5*
1,1,$1+$1,$6,$7*
1,1,$1+$1,$8,$9*
0 Add four rect primitives between the rounded corners*
20,1,$1+$1,$2,$3,$4,$5,0*
20,1,$1+$1,$4,$5,$6,$7,0*
20,1,$1+$1,$6,$7,$8,$9,0*
20,1,$1+$1,$8,$9,$2,$3,0*%
%AMFreePoly0*
4,1,33,0.290285,0.956940,0.471397,0.881921,0.634393,0.773010,0.773010,0.634393,0.881921,0.471397,0.956940,0.290285,0.995185,0.098017,0.995185,-0.098017,0.956940,-0.290285,0.881921,-0.471397,0.773010,-0.634393,0.634393,-0.773010,0.471397,-0.881921,0.290285,-0.956940,0.098017,-0.995185,-0.098017,-0.995185,-0.290285,-0.956940,-0.471397,-0.881921,-0.634393,-0.773010,-0.773010,-0.634393,
-0.881921,-0.471397,-0.956940,-0.290285,-0.995185,-0.098017,-0.995185,0.098017,-0.956940,0.290285,-0.881921,0.471397,-0.773010,0.634393,-0.634393,0.773010,-0.471397,0.881921,-0.290285,0.956940,-0.098017,0.995185,0.098017,0.995185,0.290285,0.956940,0.290285,0.956940,$1*%
G04 Aperture macros list end*
%TA.AperFunction,ComponentPad*%
%ADD10FreePoly0,0.000000*%
%TD*%
%TA.AperFunction,SMDPad,CuDef*%
%ADD11R,1.969999X0.558000*%
%TD*%
%TA.AperFunction,ComponentPad*%
%ADD12C,1.800000*%
%TD*%
%TA.AperFunction,ComponentPad*%
%ADD13R,1.800000X1.800000*%
%TD*%
%TA.AperFunction,SMDPad,CuDef*%
%ADD14RoundRect,0.112500X0.187500X0.112500X-0.187500X0.112500X-0.187500X-0.112500X0.187500X-0.112500X0*%
%TD*%
%TA.AperFunction,SMDPad,CuDef*%
%ADD15RoundRect,0.125000X0.125000X0.125000X-0.125000X0.125000X-0.125000X-0.125000X0.125000X-0.125000X0*%
%TD*%
%TA.AperFunction,SMDPad,CuDef*%
%ADD16RoundRect,0.112500X-0.112500X0.187500X-0.112500X-0.187500X0.112500X-0.187500X0.112500X0.187500X0*%
%TD*%
%TA.AperFunction,ComponentPad*%
%ADD17C,1.600000*%
%TD*%
%TA.AperFunction,SMDPad,CuDef*%
%ADD18RoundRect,0.112500X-0.187500X-0.112500X0.187500X-0.112500X0.187500X0.112500X-0.187500X0.112500X0*%
%TD*%
%TA.AperFunction,SMDPad,CuDef*%
%ADD19RoundRect,0.250000X0.312500X0.625000X-0.312500X0.625000X-0.312500X-0.625000X0.312500X-0.625000X0*%
%TD*%
%TA.AperFunction,SMDPad,CuDef*%
%ADD20RoundRect,0.250000X-0.262500X-0.450000X0.262500X-0.450000X0.262500X0.450000X-0.262500X0.450000X0*%
%TD*%
%TA.AperFunction,SMDPad,CuDef*%
%ADD21RoundRect,0.250000X0.625000X-0.312500X0.625000X0.312500X-0.625000X0.312500X-0.625000X-0.312500X0*%
%TD*%
%TA.AperFunction,SMDPad,CuDef*%
%ADD22RoundRect,0.250000X-0.450000X0.262500X-0.450000X-0.262500X0.450000X-0.262500X0.450000X0.262500X0*%
%TD*%
%TA.AperFunction,SMDPad,CuDef*%
%ADD23RoundRect,0.250000X-0.625000X0.312500X-0.625000X-0.312500X0.625000X-0.312500X0.625000X0.312500X0*%
%TD*%
%TA.AperFunction,SMDPad,CuDef*%
%ADD24RoundRect,0.250000X0.262500X0.450000X-0.262500X0.450000X-0.262500X-0.450000X0.262500X-0.450000X0*%
%TD*%
%TA.AperFunction,ComponentPad*%
%ADD25R,1.050000X1.500000*%
%TD*%
%TA.AperFunction,ComponentPad*%
%ADD26O,1.050000X1.500000*%
%TD*%
%TA.AperFunction,Conductor*%
%ADD27C,0.254000*%
%TD*%
%TA.AperFunction,Conductor*%
%ADD28C,0.400000*%
%TD*%
G04 APERTURE END LIST*
D10*
%TO.P,TP5,1,1*%
%TO.N,Net-(R24-Pad1)*%
X113270000Y-65020000D03*
%TD*%
D11*
%TO.P,U2,14,VCC*%
%TO.N,+12V*%
X120963800Y-57690000D03*
%TO.P,U2,13*%
%TO.N,Net-(D1-A)*%
X120963800Y-58960000D03*
%TO.P,U2,12*%
X120963800Y-60230000D03*
%TO.P,U2,11*%
%TO.N,Net-(U2-Pad11)*%
X120963800Y-61500000D03*
%TO.P,U2,10*%
%TO.N,Net-(D3-A)*%
X120963800Y-62770000D03*
%TO.P,U2,9*%
%TO.N,Net-(U2-Pad11)*%
X120963800Y-64040000D03*
%TO.P,U2,8*%
X120963800Y-65310000D03*
%TO.P,U2,7,GND*%
%TO.N,GND*%
X116036200Y-65310000D03*
%TO.P,U2,6*%
%TO.N,Net-(R8-Pad1)*%
X116036200Y-64040000D03*
%TO.P,U2,5*%
%TO.N,Net-(U2-Pad11)*%
X116036200Y-62770000D03*
%TO.P,U2,4*%
%TO.N,Net-(U2-Pad2)*%
X116036200Y-61500000D03*
%TO.P,U2,3*%
%TO.N,Net-(R8-Pad1)*%
X116036200Y-60230000D03*
%TO.P,U2,2*%
%TO.N,Net-(U2-Pad2)*%
X116036200Y-58960000D03*
%TO.P,U2,1*%
%TO.N,Net-(D3-K)*%
X116036200Y-57690000D03*
%TD*%
D10*
%TO.P,TP2,1,1*%
%TO.N,Net-(D5-A2)*%
X112250000Y-53500000D03*
%TD*%
D12*
%TO.P,Q1,2,E*%
%TO.N,Net-(D1-A)*%
X118423800Y-55710000D03*
D13*
%TO.P,Q1,1,C*%
%TO.N,+12V*%
X120963800Y-55710000D03*
%TD*%
D14*
%TO.P,D1,2,A*%
%TO.N,Net-(D1-A)*%
X122863800Y-58460000D03*
%TO.P,D1,1,K*%
%TO.N,+12V*%
X124963800Y-58460000D03*
%TD*%
D10*
%TO.P,TP4,1,1*%
%TO.N,Net-(R24-Pad1)*%
X110770000Y-65020000D03*
%TD*%
%TO.P,TP3,1,1*%
%TO.N,+12V*%
X115500000Y-53471914D03*
%TD*%
%TO.P,TP1,1,1*%
%TO.N,Net-(R1-Pad1)*%
X124463800Y-55710000D03*
%TD*%
D15*
%TO.P,DZ1,1,K*%
%TO.N,+12V*%
X113350000Y-59000000D03*
%TO.P,DZ1,2,A*%
%TO.N,Net-(D4-K)*%
X111150000Y-59000000D03*
%TD*%
D16*
%TO.P,D4,1,K*%
%TO.N,Net-(D4-K)*%
X109750000Y-59000000D03*
%TO.P,D4,2,A*%
%TO.N,GND*%
X109750000Y-61100000D03*
%TD*%
D17*
%TO.P,C1,1*%
%TO.N,+12V*%
X131250000Y-53750000D03*
%TO.P,C1,2*%
%TO.N,GND*%
X131250000Y-55750000D03*
%TD*%
D18*
%TO.P,D2,1,K*%
%TO.N,Net-(D1-A)*%
X122913800Y-60460000D03*
%TO.P,D2,2,A*%
%TO.N,Net-(D2-A)*%
X125013800Y-60460000D03*
%TD*%
D14*
%TO.P,D3,1,K*%
%TO.N,Net-(D3-K)*%
X125013800Y-63210000D03*
%TO.P,D3,2,A*%
%TO.N,Net-(D3-A)*%
X122913800Y-63210000D03*
%TD*%
D19*
%TO.P,R22,1*%
%TO.N,Net-(R22-Pad1)*%
X104675000Y-57250000D03*
%TO.P,R22,2*%
%TO.N,Net-(R21-Pad1)*%
X101750000Y-57250000D03*
%TD*%
D17*
%TO.P,C3,1*%
%TO.N,Net-(D3-K)*%
X131250000Y-63000000D03*
%TO.P,C3,2*%
%TO.N,GND*%
X131250000Y-65000000D03*
%TD*%
D20*
%TO.P,R6,1*%
%TO.N,Net-(D2-A)*%
X126551300Y-60960000D03*
%TO.P,R6,2*%
%TO.N,GND*%
X128376300Y-60960000D03*
%TD*%
D21*
%TO.P,R23,1*%
%TO.N,Net-(R23-Pad1)*%
X105500000Y-62750000D03*
%TO.P,R23,2*%
%TO.N,Net-(R22-Pad1)*%
X105500000Y-59825000D03*
%TD*%
D20*
%TO.P,R3,1*%
%TO.N,Net-(D3-A)*%
X123051300Y-65210000D03*
%TO.P,R3,2*%
%TO.N,Net-(D3-K)*%
X124876300Y-65210000D03*
%TD*%
D22*
%TO.P,R7,1*%
%TO.N,Net-(D1-A)*%
X126750000Y-62837500D03*
%TO.P,R7,2*%
%TO.N,GND*%
X126750000Y-64662500D03*
%TD*%
D23*
%TO.P,R21,1*%
%TO.N,Net-(R21-Pad1)*%
X102000000Y-60000000D03*
%TO.P,R21,2*%
%TO.N,Net-(C2-Pad2)*%
X102000000Y-62925000D03*
%TD*%
%TO.P,R1,1*%
%TO.N,Net-(R1-Pad1)*%
X126963800Y-56035000D03*
%TO.P,R1,2*%
%TO.N,Net-(D2-A)*%
X126963800Y-58960000D03*
%TD*%
D24*
%TO.P,R8,1*%
%TO.N,Net-(R8-Pad1)*%
X113662500Y-61250000D03*
%TO.P,R8,2*%
%TO.N,Net-(D5-G)*%
X111837500Y-61250000D03*
%TD*%
D17*
%TO.P,C2,1*%
%TO.N,Net-(D4-K)*%
X101750000Y-55000000D03*
%TO.P,C2,2*%
%TO.N,Net-(C2-Pad2)*%
X101750000Y-65000000D03*
%TD*%
D19*
%TO.P,R24,1*%
%TO.N,Net-(R24-Pad1)*%
X108425000Y-65000000D03*
%TO.P,R24,2*%
%TO.N,Net-(R23-Pad1)*%
X105500000Y-65000000D03*
%TD*%
D25*
%TO.P,D5,1,A1*%
%TO.N,+12V*%
X113520000Y-55860000D03*
D26*
%TO.P,D5,2,G*%
%TO.N,Net-(D5-G)*%
X112250000Y-55860000D03*
%TO.P,D5,3,A2*%
%TO.N,Net-(D5-A2)*%
X110980000Y-55860000D03*
%TD*%
D27*
%TO.N,Net-(D3-K)*%
X116503800Y-57690000D02*
X116036200Y-57690000D01*
X119706800Y-60893000D02*
X116503800Y-57690000D01*
X120250000Y-60893000D02*
X119706800Y-60893000D01*
X120250000Y-60893000D02*
X122213800Y-60893000D01*
X119963800Y-60893000D02*
X119706800Y-60893000D01*
D28*
%TO.N,Net-(D4-K)*%
X105750000Y-55000000D02*
X101750000Y-55000000D01*
X109750000Y-59000000D02*
X105750000Y-55000000D01*
%TO.N,+12V*%
X118725714Y-53471914D02*
X120963800Y-55710000D01*
X115500000Y-53471914D02*
X118725714Y-53471914D01*
%TO.N,Net-(R24-Pad1)*%
X110750000Y-65000000D02*
X110770000Y-65020000D01*
X108425000Y-65000000D02*
X110750000Y-65000000D01*
%TO.N,Net-(R23-Pad1)*%
X105500000Y-62750000D02*
X105500000Y-65000000D01*
%TO.N,Net-(R22-Pad1)*%
X104675000Y-59000000D02*
X105500000Y-59825000D01*
X104675000Y-57250000D02*
X104675000Y-59000000D01*
%TO.N,Net-(R21-Pad1)*%
X102000000Y-57500000D02*
X101750000Y-57250000D01*
X102000000Y-60000000D02*
X102000000Y-57500000D01*
%TO.N,Net-(C2-Pad2)*%
X101750000Y-63175000D02*
X102000000Y-62925000D01*
X101750000Y-65000000D02*
X101750000Y-63175000D01*
%TO.N,Net-(R8-Pad1)*%
X113662500Y-62372299D02*
X113662500Y-61250000D01*
X115330201Y-64040000D02*
X113662500Y-62372299D01*
X116036200Y-64040000D02*
X115330201Y-64040000D01*
X114682500Y-60230000D02*
X113662500Y-61250000D01*
X116036200Y-60230000D02*
X114682500Y-60230000D01*
%TO.N,Net-(U2-Pad2)*%
X116742199Y-61500000D02*
X116036200Y-61500000D01*
X117422199Y-59550000D02*
X117422199Y-60820000D01*
X116832199Y-58960000D02*
X117422199Y-59550000D01*
X116036200Y-58960000D02*
X116832199Y-58960000D01*
X117422199Y-60820000D02*
X116742199Y-61500000D01*
%TO.N,Net-(D5-G)*%
X112250000Y-60837500D02*
X111837500Y-61250000D01*
X112250000Y-55860000D02*
X112250000Y-60837500D01*
%TO.N,+12V*%
X113350000Y-56030000D02*
X113520000Y-55860000D01*
X113350000Y-59000000D02*
X113350000Y-56030000D01*
X113520000Y-55451914D02*
X115500000Y-53471914D01*
X113520000Y-55860000D02*
X113520000Y-55451914D01*
%TO.N,Net-(D5-A2)*%
X110980000Y-54770000D02*
X112250000Y-53500000D01*
X110980000Y-55860000D02*
X110980000Y-54770000D01*
%TO.N,Net-(D5-G)*%
X111750000Y-61250000D02*
X112250000Y-60750000D01*
%TO.N,Net-(D4-K)*%
X109500000Y-59000000D02*
X111150000Y-59000000D01*
%TO.N,Net-(D3-K)*%
X130500000Y-63750000D02*
X131250000Y-63000000D01*
X124876300Y-64873700D02*
X126000000Y-63750000D01*
X124876300Y-65210000D02*
X124876300Y-64873700D01*
X126000000Y-63750000D02*
X130500000Y-63750000D01*
X125013800Y-65072500D02*
X124876300Y-65210000D01*
X125013800Y-63210000D02*
X125013800Y-65072500D01*
D27*
X124530800Y-63210000D02*
X125013800Y-63210000D01*
X122213800Y-60893000D02*
X124530800Y-63210000D01*
X119963800Y-60893000D02*
X120250000Y-60893000D01*
D28*
%TO.N,Net-(D1-A)*%
X120963800Y-58960000D02*
X122363800Y-58960000D01*
X122363800Y-58960000D02*
X122863800Y-58460000D01*
%TO.N,Net-(D2-A)*%
X125013800Y-60460000D02*
X125553800Y-61000000D01*
X125553800Y-61000000D02*
X126511300Y-61000000D01*
X126511300Y-61000000D02*
X126551300Y-60960000D01*
%TO.N,+12V*%
X127310000Y-57690000D02*
X130375000Y-54625000D01*
X124963800Y-57690000D02*
X127310000Y-57690000D01*
X129520000Y-55480000D02*
X130375000Y-54625000D01*
%TO.N,Net-(R24-Pad1)*%
X110770000Y-65020000D02*
X113270000Y-65020000D01*
%TO.N,+12V*%
X124943800Y-57710000D02*
X124963800Y-57690000D01*
X120983800Y-57710000D02*
X124943800Y-57710000D01*
X120963800Y-57690000D02*
X120983800Y-57710000D01*
X124963800Y-58460000D02*
X124963800Y-57960000D01*
%TO.N,Net-(D1-A)*%
X121413800Y-58960000D02*
X120963800Y-58960000D01*
X122913800Y-60460000D02*
X121413800Y-58960000D01*
X124413800Y-61960000D02*
X122913800Y-60460000D01*
X124463800Y-61960000D02*
X124413800Y-61960000D01*
%TO.N,Net-(D3-K)*%
X116036200Y-57690000D02*
X116742199Y-57690000D01*
%TO.N,Net-(D1-A)*%
X124463800Y-61960000D02*
X125551300Y-61960000D01*
X122913800Y-60410000D02*
X124463800Y-61960000D01*
X125551300Y-61960000D02*
X126551300Y-62960000D01*
%TO.N,Net-(D3-A)*%
X122913800Y-65072500D02*
X123051300Y-65210000D01*
X122913800Y-63210000D02*
X122913800Y-65072500D01*
X122473800Y-62770000D02*
X122913800Y-63210000D01*
X120963800Y-62770000D02*
X122473800Y-62770000D01*
%TO.N,Net-(D3-K)*%
X116686199Y-57690000D02*
X116036200Y-57690000D01*
%TO.N,Net-(R1-Pad1)*%
X124788800Y-56035000D02*
X124463800Y-55710000D01*
X126963800Y-56035000D02*
X124788800Y-56035000D01*
%TO.N,Net-(D1-A)*%
X118423800Y-57215999D02*
X118423800Y-55710000D01*
X120167801Y-58960000D02*
X118423800Y-57215999D01*
X120963800Y-58960000D02*
X120167801Y-58960000D01*
%TO.N,+12V*%
X120963800Y-57690000D02*
X120963800Y-55710000D01*
%TO.N,Net-(D2-A)*%
X126463800Y-58960000D02*
X126963800Y-58960000D01*
X125013800Y-60410000D02*
X126463800Y-58960000D01*
%TO.N,+12V*%
X130375000Y-54625000D02*
X131250000Y-53750000D01*
%TO.N,Net-(D1-A)*%
X120963800Y-58960000D02*
X120963800Y-60230000D01*
%TO.N,+12V*%
X124963800Y-57690000D02*
X124963800Y-57960000D01*
D27*
%TO.N,Net-(U2-Pad11)*%
X120963800Y-64040000D02*
X120313801Y-64040000D01*
X119650801Y-61792999D02*
X119943800Y-61500000D01*
X119650801Y-62730000D02*
X119650801Y-61792999D01*
X119610801Y-62770000D02*
X116036200Y-62770000D01*
X119650801Y-62730000D02*
X119610801Y-62770000D01*
X119650801Y-63377000D02*
X119650801Y-62730000D01*
X120313801Y-64040000D02*
X119650801Y-63377000D01*
X120963800Y-65310000D02*
X120963800Y-64040000D01*
X119943800Y-61500000D02*
X120963800Y-61500000D01*
D28*
%TO.N,Net-(D3-K)*%
X131000000Y-62750000D02*
X131250000Y-63000000D01*
%TD*%
M02*
