%TF.GenerationSoftware,KiCad,Pcbnew,9.0.1*%
%TF.CreationDate,2025-07-04T12:29:26+03:00*%
%TF.ProjectId,Fan,46616e2e-6b69-4636-9164-5f7063625858,rev?*%
%TF.SameCoordinates,Original*%
%TF.FileFunction,Legend,Top*%
%TF.FilePolarity,Positive*%
%FSLAX46Y46*%
G04 Gerber Fmt 4.6, Leading zero omitted, Abs format (unit mm)*
G04 Created by KiCad (PCBNEW 9.0.1) date 2025-07-04 12:29:26*
%MOMM*%
%LPD*%
G01*
G04 APERTURE LIST*
%ADD10C,0.150000*%
%ADD11C,0.075000*%
%ADD12C,0.093750*%
%ADD13C,0.120000*%
%ADD14C,0.152400*%
%ADD15C,0.000000*%
G04 APERTURE END LIST*
D10*
X105484580Y-58441666D02*
X105532200Y-58489285D01*
X105532200Y-58489285D02*
X105579819Y-58632142D01*
X105579819Y-58632142D02*
X105579819Y-58727380D01*
X105579819Y-58727380D02*
X105532200Y-58870237D01*
X105532200Y-58870237D02*
X105436961Y-58965475D01*
X105436961Y-58965475D02*
X105341723Y-59013094D01*
X105341723Y-59013094D02*
X105151247Y-59060713D01*
X105151247Y-59060713D02*
X105008390Y-59060713D01*
X105008390Y-59060713D02*
X104817914Y-59013094D01*
X104817914Y-59013094D02*
X104722676Y-58965475D01*
X104722676Y-58965475D02*
X104627438Y-58870237D01*
X104627438Y-58870237D02*
X104579819Y-58727380D01*
X104579819Y-58727380D02*
X104579819Y-58632142D01*
X104579819Y-58632142D02*
X104627438Y-58489285D01*
X104627438Y-58489285D02*
X104675057Y-58441666D01*
X104675057Y-58060713D02*
X104627438Y-58013094D01*
X104627438Y-58013094D02*
X104579819Y-57917856D01*
X104579819Y-57917856D02*
X104579819Y-57679761D01*
X104579819Y-57679761D02*
X104627438Y-57584523D01*
X104627438Y-57584523D02*
X104675057Y-57536904D01*
X104675057Y-57536904D02*
X104770295Y-57489285D01*
X104770295Y-57489285D02*
X104865533Y-57489285D01*
X104865533Y-57489285D02*
X105008390Y-57536904D01*
X105008390Y-57536904D02*
X105579819Y-58108332D01*
X105579819Y-58108332D02*
X105579819Y-57489285D01*
D11*
X102764285Y-56148671D02*
X102564285Y-55862957D01*
X102421428Y-56148671D02*
X102421428Y-55548671D01*
X102421428Y-55548671D02*
X102649999Y-55548671D01*
X102649999Y-55548671D02*
X102707142Y-55577242D01*
X102707142Y-55577242D02*
X102735713Y-55605814D01*
X102735713Y-55605814D02*
X102764285Y-55662957D01*
X102764285Y-55662957D02*
X102764285Y-55748671D01*
X102764285Y-55748671D02*
X102735713Y-55805814D01*
X102735713Y-55805814D02*
X102707142Y-55834385D01*
X102707142Y-55834385D02*
X102649999Y-55862957D01*
X102649999Y-55862957D02*
X102421428Y-55862957D01*
X102992856Y-55605814D02*
X103021428Y-55577242D01*
X103021428Y-55577242D02*
X103078571Y-55548671D01*
X103078571Y-55548671D02*
X103221428Y-55548671D01*
X103221428Y-55548671D02*
X103278571Y-55577242D01*
X103278571Y-55577242D02*
X103307142Y-55605814D01*
X103307142Y-55605814D02*
X103335713Y-55662957D01*
X103335713Y-55662957D02*
X103335713Y-55720100D01*
X103335713Y-55720100D02*
X103307142Y-55805814D01*
X103307142Y-55805814D02*
X102964285Y-56148671D01*
X102964285Y-56148671D02*
X103335713Y-56148671D01*
X103564285Y-55605814D02*
X103592857Y-55577242D01*
X103592857Y-55577242D02*
X103650000Y-55548671D01*
X103650000Y-55548671D02*
X103792857Y-55548671D01*
X103792857Y-55548671D02*
X103850000Y-55577242D01*
X103850000Y-55577242D02*
X103878571Y-55605814D01*
X103878571Y-55605814D02*
X103907142Y-55662957D01*
X103907142Y-55662957D02*
X103907142Y-55720100D01*
X103907142Y-55720100D02*
X103878571Y-55805814D01*
X103878571Y-55805814D02*
X103535714Y-56148671D01*
X103535714Y-56148671D02*
X103907142Y-56148671D01*
D12*
X110822696Y-58778571D02*
X110222696Y-58778571D01*
X110222696Y-58778571D02*
X110222696Y-58635714D01*
X110222696Y-58635714D02*
X110251267Y-58550000D01*
X110251267Y-58550000D02*
X110308410Y-58492857D01*
X110308410Y-58492857D02*
X110365553Y-58464286D01*
X110365553Y-58464286D02*
X110479839Y-58435714D01*
X110479839Y-58435714D02*
X110565553Y-58435714D01*
X110565553Y-58435714D02*
X110679839Y-58464286D01*
X110679839Y-58464286D02*
X110736982Y-58492857D01*
X110736982Y-58492857D02*
X110794125Y-58550000D01*
X110794125Y-58550000D02*
X110822696Y-58635714D01*
X110822696Y-58635714D02*
X110822696Y-58778571D01*
X110222696Y-58235714D02*
X110222696Y-57835714D01*
X110222696Y-57835714D02*
X110822696Y-58235714D01*
X110822696Y-58235714D02*
X110822696Y-57835714D01*
X110822696Y-57292857D02*
X110822696Y-57635714D01*
X110822696Y-57464285D02*
X110222696Y-57464285D01*
X110222696Y-57464285D02*
X110308410Y-57521428D01*
X110308410Y-57521428D02*
X110365553Y-57578571D01*
X110365553Y-57578571D02*
X110394125Y-57635714D01*
D10*
X105861905Y-62154819D02*
X105861905Y-61154819D01*
X105861905Y-61154819D02*
X106100000Y-61154819D01*
X106100000Y-61154819D02*
X106242857Y-61202438D01*
X106242857Y-61202438D02*
X106338095Y-61297676D01*
X106338095Y-61297676D02*
X106385714Y-61392914D01*
X106385714Y-61392914D02*
X106433333Y-61583390D01*
X106433333Y-61583390D02*
X106433333Y-61726247D01*
X106433333Y-61726247D02*
X106385714Y-61916723D01*
X106385714Y-61916723D02*
X106338095Y-62011961D01*
X106338095Y-62011961D02*
X106242857Y-62107200D01*
X106242857Y-62107200D02*
X106100000Y-62154819D01*
X106100000Y-62154819D02*
X105861905Y-62154819D01*
X107290476Y-61488152D02*
X107290476Y-62154819D01*
X107052381Y-61107200D02*
X106814286Y-61821485D01*
X106814286Y-61821485D02*
X107433333Y-61821485D01*
D11*
X126107143Y-56948671D02*
X126107143Y-56348671D01*
X126107143Y-56348671D02*
X126250000Y-56348671D01*
X126250000Y-56348671D02*
X126335714Y-56377242D01*
X126335714Y-56377242D02*
X126392857Y-56434385D01*
X126392857Y-56434385D02*
X126421428Y-56491528D01*
X126421428Y-56491528D02*
X126450000Y-56605814D01*
X126450000Y-56605814D02*
X126450000Y-56691528D01*
X126450000Y-56691528D02*
X126421428Y-56805814D01*
X126421428Y-56805814D02*
X126392857Y-56862957D01*
X126392857Y-56862957D02*
X126335714Y-56920100D01*
X126335714Y-56920100D02*
X126250000Y-56948671D01*
X126250000Y-56948671D02*
X126107143Y-56948671D01*
X126678571Y-56405814D02*
X126707143Y-56377242D01*
X126707143Y-56377242D02*
X126764286Y-56348671D01*
X126764286Y-56348671D02*
X126907143Y-56348671D01*
X126907143Y-56348671D02*
X126964286Y-56377242D01*
X126964286Y-56377242D02*
X126992857Y-56405814D01*
X126992857Y-56405814D02*
X127021428Y-56462957D01*
X127021428Y-56462957D02*
X127021428Y-56520100D01*
X127021428Y-56520100D02*
X126992857Y-56605814D01*
X126992857Y-56605814D02*
X126650000Y-56948671D01*
X126650000Y-56948671D02*
X127021428Y-56948671D01*
X126107143Y-63848671D02*
X126107143Y-63248671D01*
X126107143Y-63248671D02*
X126250000Y-63248671D01*
X126250000Y-63248671D02*
X126335714Y-63277242D01*
X126335714Y-63277242D02*
X126392857Y-63334385D01*
X126392857Y-63334385D02*
X126421428Y-63391528D01*
X126421428Y-63391528D02*
X126450000Y-63505814D01*
X126450000Y-63505814D02*
X126450000Y-63591528D01*
X126450000Y-63591528D02*
X126421428Y-63705814D01*
X126421428Y-63705814D02*
X126392857Y-63762957D01*
X126392857Y-63762957D02*
X126335714Y-63820100D01*
X126335714Y-63820100D02*
X126250000Y-63848671D01*
X126250000Y-63848671D02*
X126107143Y-63848671D01*
X126650000Y-63248671D02*
X127021428Y-63248671D01*
X127021428Y-63248671D02*
X126821428Y-63477242D01*
X126821428Y-63477242D02*
X126907143Y-63477242D01*
X126907143Y-63477242D02*
X126964286Y-63505814D01*
X126964286Y-63505814D02*
X126992857Y-63534385D01*
X126992857Y-63534385D02*
X127021428Y-63591528D01*
X127021428Y-63591528D02*
X127021428Y-63734385D01*
X127021428Y-63734385D02*
X126992857Y-63791528D01*
X126992857Y-63791528D02*
X126964286Y-63820100D01*
X126964286Y-63820100D02*
X126907143Y-63848671D01*
X126907143Y-63848671D02*
X126735714Y-63848671D01*
X126735714Y-63848671D02*
X126678571Y-63820100D01*
X126678571Y-63820100D02*
X126650000Y-63791528D01*
X113482143Y-57748671D02*
X113482143Y-57148671D01*
X113482143Y-57434385D02*
X113825000Y-57434385D01*
X113825000Y-57748671D02*
X113825000Y-57148671D01*
X114082142Y-57720100D02*
X114167857Y-57748671D01*
X114167857Y-57748671D02*
X114310714Y-57748671D01*
X114310714Y-57748671D02*
X114367857Y-57720100D01*
X114367857Y-57720100D02*
X114396428Y-57691528D01*
X114396428Y-57691528D02*
X114424999Y-57634385D01*
X114424999Y-57634385D02*
X114424999Y-57577242D01*
X114424999Y-57577242D02*
X114396428Y-57520100D01*
X114396428Y-57520100D02*
X114367857Y-57491528D01*
X114367857Y-57491528D02*
X114310714Y-57462957D01*
X114310714Y-57462957D02*
X114196428Y-57434385D01*
X114196428Y-57434385D02*
X114139285Y-57405814D01*
X114139285Y-57405814D02*
X114110714Y-57377242D01*
X114110714Y-57377242D02*
X114082142Y-57320100D01*
X114082142Y-57320100D02*
X114082142Y-57262957D01*
X114082142Y-57262957D02*
X114110714Y-57205814D01*
X114110714Y-57205814D02*
X114139285Y-57177242D01*
X114139285Y-57177242D02*
X114196428Y-57148671D01*
X114196428Y-57148671D02*
X114339285Y-57148671D01*
X114339285Y-57148671D02*
X114424999Y-57177242D01*
X114653571Y-57205814D02*
X114682143Y-57177242D01*
X114682143Y-57177242D02*
X114739286Y-57148671D01*
X114739286Y-57148671D02*
X114882143Y-57148671D01*
X114882143Y-57148671D02*
X114939286Y-57177242D01*
X114939286Y-57177242D02*
X114967857Y-57205814D01*
X114967857Y-57205814D02*
X114996428Y-57262957D01*
X114996428Y-57262957D02*
X114996428Y-57320100D01*
X114996428Y-57320100D02*
X114967857Y-57405814D01*
X114967857Y-57405814D02*
X114625000Y-57748671D01*
X114625000Y-57748671D02*
X114996428Y-57748671D01*
X124173671Y-56142856D02*
X123573671Y-56142856D01*
X123573671Y-56142856D02*
X123573671Y-55999999D01*
X123573671Y-55999999D02*
X123602242Y-55914285D01*
X123602242Y-55914285D02*
X123659385Y-55857142D01*
X123659385Y-55857142D02*
X123716528Y-55828571D01*
X123716528Y-55828571D02*
X123830814Y-55799999D01*
X123830814Y-55799999D02*
X123916528Y-55799999D01*
X123916528Y-55799999D02*
X124030814Y-55828571D01*
X124030814Y-55828571D02*
X124087957Y-55857142D01*
X124087957Y-55857142D02*
X124145100Y-55914285D01*
X124145100Y-55914285D02*
X124173671Y-55999999D01*
X124173671Y-55999999D02*
X124173671Y-56142856D01*
X124173671Y-55228571D02*
X124173671Y-55571428D01*
X124173671Y-55399999D02*
X123573671Y-55399999D01*
X123573671Y-55399999D02*
X123659385Y-55457142D01*
X123659385Y-55457142D02*
X123716528Y-55514285D01*
X123716528Y-55514285D02*
X123745100Y-55571428D01*
X104842856Y-52423671D02*
X105185714Y-52423671D01*
X105014285Y-53023671D02*
X105014285Y-52423671D01*
X105385714Y-53023671D02*
X105385714Y-52423671D01*
X105385714Y-52423671D02*
X105614285Y-52423671D01*
X105614285Y-52423671D02*
X105671428Y-52452242D01*
X105671428Y-52452242D02*
X105699999Y-52480814D01*
X105699999Y-52480814D02*
X105728571Y-52537957D01*
X105728571Y-52537957D02*
X105728571Y-52623671D01*
X105728571Y-52623671D02*
X105699999Y-52680814D01*
X105699999Y-52680814D02*
X105671428Y-52709385D01*
X105671428Y-52709385D02*
X105614285Y-52737957D01*
X105614285Y-52737957D02*
X105385714Y-52737957D01*
X105957142Y-52480814D02*
X105985714Y-52452242D01*
X105985714Y-52452242D02*
X106042857Y-52423671D01*
X106042857Y-52423671D02*
X106185714Y-52423671D01*
X106185714Y-52423671D02*
X106242857Y-52452242D01*
X106242857Y-52452242D02*
X106271428Y-52480814D01*
X106271428Y-52480814D02*
X106299999Y-52537957D01*
X106299999Y-52537957D02*
X106299999Y-52595100D01*
X106299999Y-52595100D02*
X106271428Y-52680814D01*
X106271428Y-52680814D02*
X105928571Y-53023671D01*
X105928571Y-53023671D02*
X106299999Y-53023671D01*
X106767856Y-63698671D02*
X107110714Y-63698671D01*
X106939285Y-64298671D02*
X106939285Y-63698671D01*
X107310714Y-64298671D02*
X107310714Y-63698671D01*
X107310714Y-63698671D02*
X107539285Y-63698671D01*
X107539285Y-63698671D02*
X107596428Y-63727242D01*
X107596428Y-63727242D02*
X107624999Y-63755814D01*
X107624999Y-63755814D02*
X107653571Y-63812957D01*
X107653571Y-63812957D02*
X107653571Y-63898671D01*
X107653571Y-63898671D02*
X107624999Y-63955814D01*
X107624999Y-63955814D02*
X107596428Y-63984385D01*
X107596428Y-63984385D02*
X107539285Y-64012957D01*
X107539285Y-64012957D02*
X107310714Y-64012957D01*
X108167857Y-63898671D02*
X108167857Y-64298671D01*
X108024999Y-63670100D02*
X107882142Y-64098671D01*
X107882142Y-64098671D02*
X108253571Y-64098671D01*
D10*
X118375595Y-58764819D02*
X118375595Y-59574342D01*
X118375595Y-59574342D02*
X118423214Y-59669580D01*
X118423214Y-59669580D02*
X118470833Y-59717200D01*
X118470833Y-59717200D02*
X118566071Y-59764819D01*
X118566071Y-59764819D02*
X118756547Y-59764819D01*
X118756547Y-59764819D02*
X118851785Y-59717200D01*
X118851785Y-59717200D02*
X118899404Y-59669580D01*
X118899404Y-59669580D02*
X118947023Y-59574342D01*
X118947023Y-59574342D02*
X118947023Y-58764819D01*
X119375595Y-58860057D02*
X119423214Y-58812438D01*
X119423214Y-58812438D02*
X119518452Y-58764819D01*
X119518452Y-58764819D02*
X119756547Y-58764819D01*
X119756547Y-58764819D02*
X119851785Y-58812438D01*
X119851785Y-58812438D02*
X119899404Y-58860057D01*
X119899404Y-58860057D02*
X119947023Y-58955295D01*
X119947023Y-58955295D02*
X119947023Y-59050533D01*
X119947023Y-59050533D02*
X119899404Y-59193390D01*
X119899404Y-59193390D02*
X119327976Y-59764819D01*
X119327976Y-59764819D02*
X119947023Y-59764819D01*
D11*
X128673671Y-63899999D02*
X128387957Y-64099999D01*
X128673671Y-64242856D02*
X128073671Y-64242856D01*
X128073671Y-64242856D02*
X128073671Y-64014285D01*
X128073671Y-64014285D02*
X128102242Y-63957142D01*
X128102242Y-63957142D02*
X128130814Y-63928571D01*
X128130814Y-63928571D02*
X128187957Y-63899999D01*
X128187957Y-63899999D02*
X128273671Y-63899999D01*
X128273671Y-63899999D02*
X128330814Y-63928571D01*
X128330814Y-63928571D02*
X128359385Y-63957142D01*
X128359385Y-63957142D02*
X128387957Y-64014285D01*
X128387957Y-64014285D02*
X128387957Y-64242856D01*
X128073671Y-63385714D02*
X128073671Y-63499999D01*
X128073671Y-63499999D02*
X128102242Y-63557142D01*
X128102242Y-63557142D02*
X128130814Y-63585714D01*
X128130814Y-63585714D02*
X128216528Y-63642856D01*
X128216528Y-63642856D02*
X128330814Y-63671428D01*
X128330814Y-63671428D02*
X128559385Y-63671428D01*
X128559385Y-63671428D02*
X128616528Y-63642856D01*
X128616528Y-63642856D02*
X128645100Y-63614285D01*
X128645100Y-63614285D02*
X128673671Y-63557142D01*
X128673671Y-63557142D02*
X128673671Y-63442856D01*
X128673671Y-63442856D02*
X128645100Y-63385714D01*
X128645100Y-63385714D02*
X128616528Y-63357142D01*
X128616528Y-63357142D02*
X128559385Y-63328571D01*
X128559385Y-63328571D02*
X128416528Y-63328571D01*
X128416528Y-63328571D02*
X128359385Y-63357142D01*
X128359385Y-63357142D02*
X128330814Y-63385714D01*
X128330814Y-63385714D02*
X128302242Y-63442856D01*
X128302242Y-63442856D02*
X128302242Y-63557142D01*
X128302242Y-63557142D02*
X128330814Y-63614285D01*
X128330814Y-63614285D02*
X128359385Y-63642856D01*
X128359385Y-63642856D02*
X128416528Y-63671428D01*
X131042856Y-57738671D02*
X131385714Y-57738671D01*
X131214285Y-58338671D02*
X131214285Y-57738671D01*
X131585714Y-58338671D02*
X131585714Y-57738671D01*
X131585714Y-57738671D02*
X131814285Y-57738671D01*
X131814285Y-57738671D02*
X131871428Y-57767242D01*
X131871428Y-57767242D02*
X131899999Y-57795814D01*
X131899999Y-57795814D02*
X131928571Y-57852957D01*
X131928571Y-57852957D02*
X131928571Y-57938671D01*
X131928571Y-57938671D02*
X131899999Y-57995814D01*
X131899999Y-57995814D02*
X131871428Y-58024385D01*
X131871428Y-58024385D02*
X131814285Y-58052957D01*
X131814285Y-58052957D02*
X131585714Y-58052957D01*
X132499999Y-58338671D02*
X132157142Y-58338671D01*
X132328571Y-58338671D02*
X132328571Y-57738671D01*
X132328571Y-57738671D02*
X132271428Y-57824385D01*
X132271428Y-57824385D02*
X132214285Y-57881528D01*
X132214285Y-57881528D02*
X132157142Y-57910100D01*
X111582143Y-52923671D02*
X111582143Y-52323671D01*
X111582143Y-52609385D02*
X111925000Y-52609385D01*
X111925000Y-52923671D02*
X111925000Y-52323671D01*
X112182142Y-52895100D02*
X112267857Y-52923671D01*
X112267857Y-52923671D02*
X112410714Y-52923671D01*
X112410714Y-52923671D02*
X112467857Y-52895100D01*
X112467857Y-52895100D02*
X112496428Y-52866528D01*
X112496428Y-52866528D02*
X112524999Y-52809385D01*
X112524999Y-52809385D02*
X112524999Y-52752242D01*
X112524999Y-52752242D02*
X112496428Y-52695100D01*
X112496428Y-52695100D02*
X112467857Y-52666528D01*
X112467857Y-52666528D02*
X112410714Y-52637957D01*
X112410714Y-52637957D02*
X112296428Y-52609385D01*
X112296428Y-52609385D02*
X112239285Y-52580814D01*
X112239285Y-52580814D02*
X112210714Y-52552242D01*
X112210714Y-52552242D02*
X112182142Y-52495100D01*
X112182142Y-52495100D02*
X112182142Y-52437957D01*
X112182142Y-52437957D02*
X112210714Y-52380814D01*
X112210714Y-52380814D02*
X112239285Y-52352242D01*
X112239285Y-52352242D02*
X112296428Y-52323671D01*
X112296428Y-52323671D02*
X112439285Y-52323671D01*
X112439285Y-52323671D02*
X112524999Y-52352242D01*
X113096428Y-52923671D02*
X112753571Y-52923671D01*
X112925000Y-52923671D02*
X112925000Y-52323671D01*
X112925000Y-52323671D02*
X112867857Y-52409385D01*
X112867857Y-52409385D02*
X112810714Y-52466528D01*
X112810714Y-52466528D02*
X112753571Y-52495100D01*
X117567856Y-52323671D02*
X117910714Y-52323671D01*
X117739285Y-52923671D02*
X117739285Y-52323671D01*
X118110714Y-52923671D02*
X118110714Y-52323671D01*
X118110714Y-52323671D02*
X118339285Y-52323671D01*
X118339285Y-52323671D02*
X118396428Y-52352242D01*
X118396428Y-52352242D02*
X118424999Y-52380814D01*
X118424999Y-52380814D02*
X118453571Y-52437957D01*
X118453571Y-52437957D02*
X118453571Y-52523671D01*
X118453571Y-52523671D02*
X118424999Y-52580814D01*
X118424999Y-52580814D02*
X118396428Y-52609385D01*
X118396428Y-52609385D02*
X118339285Y-52637957D01*
X118339285Y-52637957D02*
X118110714Y-52637957D01*
X118653571Y-52323671D02*
X119024999Y-52323671D01*
X119024999Y-52323671D02*
X118824999Y-52552242D01*
X118824999Y-52552242D02*
X118910714Y-52552242D01*
X118910714Y-52552242D02*
X118967857Y-52580814D01*
X118967857Y-52580814D02*
X118996428Y-52609385D01*
X118996428Y-52609385D02*
X119024999Y-52666528D01*
X119024999Y-52666528D02*
X119024999Y-52809385D01*
X119024999Y-52809385D02*
X118996428Y-52866528D01*
X118996428Y-52866528D02*
X118967857Y-52895100D01*
X118967857Y-52895100D02*
X118910714Y-52923671D01*
X118910714Y-52923671D02*
X118739285Y-52923671D01*
X118739285Y-52923671D02*
X118682142Y-52895100D01*
X118682142Y-52895100D02*
X118653571Y-52866528D01*
X105548671Y-59723214D02*
X105262957Y-59923214D01*
X105548671Y-60066071D02*
X104948671Y-60066071D01*
X104948671Y-60066071D02*
X104948671Y-59837500D01*
X104948671Y-59837500D02*
X104977242Y-59780357D01*
X104977242Y-59780357D02*
X105005814Y-59751786D01*
X105005814Y-59751786D02*
X105062957Y-59723214D01*
X105062957Y-59723214D02*
X105148671Y-59723214D01*
X105148671Y-59723214D02*
X105205814Y-59751786D01*
X105205814Y-59751786D02*
X105234385Y-59780357D01*
X105234385Y-59780357D02*
X105262957Y-59837500D01*
X105262957Y-59837500D02*
X105262957Y-60066071D01*
X105005814Y-59494643D02*
X104977242Y-59466071D01*
X104977242Y-59466071D02*
X104948671Y-59408929D01*
X104948671Y-59408929D02*
X104948671Y-59266071D01*
X104948671Y-59266071D02*
X104977242Y-59208929D01*
X104977242Y-59208929D02*
X105005814Y-59180357D01*
X105005814Y-59180357D02*
X105062957Y-59151786D01*
X105062957Y-59151786D02*
X105120100Y-59151786D01*
X105120100Y-59151786D02*
X105205814Y-59180357D01*
X105205814Y-59180357D02*
X105548671Y-59523214D01*
X105548671Y-59523214D02*
X105548671Y-59151786D01*
X104948671Y-58951785D02*
X104948671Y-58580357D01*
X104948671Y-58580357D02*
X105177242Y-58780357D01*
X105177242Y-58780357D02*
X105177242Y-58694642D01*
X105177242Y-58694642D02*
X105205814Y-58637500D01*
X105205814Y-58637500D02*
X105234385Y-58608928D01*
X105234385Y-58608928D02*
X105291528Y-58580357D01*
X105291528Y-58580357D02*
X105434385Y-58580357D01*
X105434385Y-58580357D02*
X105491528Y-58608928D01*
X105491528Y-58608928D02*
X105520100Y-58637500D01*
X105520100Y-58637500D02*
X105548671Y-58694642D01*
X105548671Y-58694642D02*
X105548671Y-58866071D01*
X105548671Y-58866071D02*
X105520100Y-58923214D01*
X105520100Y-58923214D02*
X105491528Y-58951785D01*
X124173671Y-59362499D02*
X123887957Y-59562499D01*
X124173671Y-59705356D02*
X123573671Y-59705356D01*
X123573671Y-59705356D02*
X123573671Y-59476785D01*
X123573671Y-59476785D02*
X123602242Y-59419642D01*
X123602242Y-59419642D02*
X123630814Y-59391071D01*
X123630814Y-59391071D02*
X123687957Y-59362499D01*
X123687957Y-59362499D02*
X123773671Y-59362499D01*
X123773671Y-59362499D02*
X123830814Y-59391071D01*
X123830814Y-59391071D02*
X123859385Y-59419642D01*
X123859385Y-59419642D02*
X123887957Y-59476785D01*
X123887957Y-59476785D02*
X123887957Y-59705356D01*
X123573671Y-59162499D02*
X123573671Y-58791071D01*
X123573671Y-58791071D02*
X123802242Y-58991071D01*
X123802242Y-58991071D02*
X123802242Y-58905356D01*
X123802242Y-58905356D02*
X123830814Y-58848214D01*
X123830814Y-58848214D02*
X123859385Y-58819642D01*
X123859385Y-58819642D02*
X123916528Y-58791071D01*
X123916528Y-58791071D02*
X124059385Y-58791071D01*
X124059385Y-58791071D02*
X124116528Y-58819642D01*
X124116528Y-58819642D02*
X124145100Y-58848214D01*
X124145100Y-58848214D02*
X124173671Y-58905356D01*
X124173671Y-58905356D02*
X124173671Y-59076785D01*
X124173671Y-59076785D02*
X124145100Y-59133928D01*
X124145100Y-59133928D02*
X124116528Y-59162499D01*
X126673671Y-61712499D02*
X126387957Y-61912499D01*
X126673671Y-62055356D02*
X126073671Y-62055356D01*
X126073671Y-62055356D02*
X126073671Y-61826785D01*
X126073671Y-61826785D02*
X126102242Y-61769642D01*
X126102242Y-61769642D02*
X126130814Y-61741071D01*
X126130814Y-61741071D02*
X126187957Y-61712499D01*
X126187957Y-61712499D02*
X126273671Y-61712499D01*
X126273671Y-61712499D02*
X126330814Y-61741071D01*
X126330814Y-61741071D02*
X126359385Y-61769642D01*
X126359385Y-61769642D02*
X126387957Y-61826785D01*
X126387957Y-61826785D02*
X126387957Y-62055356D01*
X126073671Y-61512499D02*
X126073671Y-61112499D01*
X126073671Y-61112499D02*
X126673671Y-61369642D01*
X102123671Y-60310714D02*
X101837957Y-60510714D01*
X102123671Y-60653571D02*
X101523671Y-60653571D01*
X101523671Y-60653571D02*
X101523671Y-60425000D01*
X101523671Y-60425000D02*
X101552242Y-60367857D01*
X101552242Y-60367857D02*
X101580814Y-60339286D01*
X101580814Y-60339286D02*
X101637957Y-60310714D01*
X101637957Y-60310714D02*
X101723671Y-60310714D01*
X101723671Y-60310714D02*
X101780814Y-60339286D01*
X101780814Y-60339286D02*
X101809385Y-60367857D01*
X101809385Y-60367857D02*
X101837957Y-60425000D01*
X101837957Y-60425000D02*
X101837957Y-60653571D01*
X101580814Y-60082143D02*
X101552242Y-60053571D01*
X101552242Y-60053571D02*
X101523671Y-59996429D01*
X101523671Y-59996429D02*
X101523671Y-59853571D01*
X101523671Y-59853571D02*
X101552242Y-59796429D01*
X101552242Y-59796429D02*
X101580814Y-59767857D01*
X101580814Y-59767857D02*
X101637957Y-59739286D01*
X101637957Y-59739286D02*
X101695100Y-59739286D01*
X101695100Y-59739286D02*
X101780814Y-59767857D01*
X101780814Y-59767857D02*
X102123671Y-60110714D01*
X102123671Y-60110714D02*
X102123671Y-59739286D01*
X102123671Y-59167857D02*
X102123671Y-59510714D01*
X102123671Y-59339285D02*
X101523671Y-59339285D01*
X101523671Y-59339285D02*
X101609385Y-59396428D01*
X101609385Y-59396428D02*
X101666528Y-59453571D01*
X101666528Y-59453571D02*
X101695100Y-59510714D01*
X130400000Y-58073671D02*
X130200000Y-57787957D01*
X130057143Y-58073671D02*
X130057143Y-57473671D01*
X130057143Y-57473671D02*
X130285714Y-57473671D01*
X130285714Y-57473671D02*
X130342857Y-57502242D01*
X130342857Y-57502242D02*
X130371428Y-57530814D01*
X130371428Y-57530814D02*
X130400000Y-57587957D01*
X130400000Y-57587957D02*
X130400000Y-57673671D01*
X130400000Y-57673671D02*
X130371428Y-57730814D01*
X130371428Y-57730814D02*
X130342857Y-57759385D01*
X130342857Y-57759385D02*
X130285714Y-57787957D01*
X130285714Y-57787957D02*
X130057143Y-57787957D01*
X130971428Y-58073671D02*
X130628571Y-58073671D01*
X130800000Y-58073671D02*
X130800000Y-57473671D01*
X130800000Y-57473671D02*
X130742857Y-57559385D01*
X130742857Y-57559385D02*
X130685714Y-57616528D01*
X130685714Y-57616528D02*
X130628571Y-57645100D01*
X108867856Y-63698671D02*
X109210714Y-63698671D01*
X109039285Y-64298671D02*
X109039285Y-63698671D01*
X109410714Y-64298671D02*
X109410714Y-63698671D01*
X109410714Y-63698671D02*
X109639285Y-63698671D01*
X109639285Y-63698671D02*
X109696428Y-63727242D01*
X109696428Y-63727242D02*
X109724999Y-63755814D01*
X109724999Y-63755814D02*
X109753571Y-63812957D01*
X109753571Y-63812957D02*
X109753571Y-63898671D01*
X109753571Y-63898671D02*
X109724999Y-63955814D01*
X109724999Y-63955814D02*
X109696428Y-63984385D01*
X109696428Y-63984385D02*
X109639285Y-64012957D01*
X109639285Y-64012957D02*
X109410714Y-64012957D01*
X110296428Y-63698671D02*
X110010714Y-63698671D01*
X110010714Y-63698671D02*
X109982142Y-63984385D01*
X109982142Y-63984385D02*
X110010714Y-63955814D01*
X110010714Y-63955814D02*
X110067857Y-63927242D01*
X110067857Y-63927242D02*
X110210714Y-63927242D01*
X110210714Y-63927242D02*
X110267857Y-63955814D01*
X110267857Y-63955814D02*
X110296428Y-63984385D01*
X110296428Y-63984385D02*
X110324999Y-64041528D01*
X110324999Y-64041528D02*
X110324999Y-64184385D01*
X110324999Y-64184385D02*
X110296428Y-64241528D01*
X110296428Y-64241528D02*
X110267857Y-64270100D01*
X110267857Y-64270100D02*
X110210714Y-64298671D01*
X110210714Y-64298671D02*
X110067857Y-64298671D01*
X110067857Y-64298671D02*
X110010714Y-64270100D01*
X110010714Y-64270100D02*
X109982142Y-64241528D01*
D10*
X113633333Y-61454819D02*
X113300000Y-60978628D01*
X113061905Y-61454819D02*
X113061905Y-60454819D01*
X113061905Y-60454819D02*
X113442857Y-60454819D01*
X113442857Y-60454819D02*
X113538095Y-60502438D01*
X113538095Y-60502438D02*
X113585714Y-60550057D01*
X113585714Y-60550057D02*
X113633333Y-60645295D01*
X113633333Y-60645295D02*
X113633333Y-60788152D01*
X113633333Y-60788152D02*
X113585714Y-60883390D01*
X113585714Y-60883390D02*
X113538095Y-60931009D01*
X113538095Y-60931009D02*
X113442857Y-60978628D01*
X113442857Y-60978628D02*
X113061905Y-60978628D01*
X114204762Y-60883390D02*
X114109524Y-60835771D01*
X114109524Y-60835771D02*
X114061905Y-60788152D01*
X114061905Y-60788152D02*
X114014286Y-60692914D01*
X114014286Y-60692914D02*
X114014286Y-60645295D01*
X114014286Y-60645295D02*
X114061905Y-60550057D01*
X114061905Y-60550057D02*
X114109524Y-60502438D01*
X114109524Y-60502438D02*
X114204762Y-60454819D01*
X114204762Y-60454819D02*
X114395238Y-60454819D01*
X114395238Y-60454819D02*
X114490476Y-60502438D01*
X114490476Y-60502438D02*
X114538095Y-60550057D01*
X114538095Y-60550057D02*
X114585714Y-60645295D01*
X114585714Y-60645295D02*
X114585714Y-60692914D01*
X114585714Y-60692914D02*
X114538095Y-60788152D01*
X114538095Y-60788152D02*
X114490476Y-60835771D01*
X114490476Y-60835771D02*
X114395238Y-60883390D01*
X114395238Y-60883390D02*
X114204762Y-60883390D01*
X114204762Y-60883390D02*
X114109524Y-60931009D01*
X114109524Y-60931009D02*
X114061905Y-60978628D01*
X114061905Y-60978628D02*
X114014286Y-61073866D01*
X114014286Y-61073866D02*
X114014286Y-61264342D01*
X114014286Y-61264342D02*
X114061905Y-61359580D01*
X114061905Y-61359580D02*
X114109524Y-61407200D01*
X114109524Y-61407200D02*
X114204762Y-61454819D01*
X114204762Y-61454819D02*
X114395238Y-61454819D01*
X114395238Y-61454819D02*
X114490476Y-61407200D01*
X114490476Y-61407200D02*
X114538095Y-61359580D01*
X114538095Y-61359580D02*
X114585714Y-61264342D01*
X114585714Y-61264342D02*
X114585714Y-61073866D01*
X114585714Y-61073866D02*
X114538095Y-60978628D01*
X114538095Y-60978628D02*
X114490476Y-60931009D01*
X114490476Y-60931009D02*
X114395238Y-60883390D01*
D11*
X105548671Y-64373214D02*
X105262957Y-64573214D01*
X105548671Y-64716071D02*
X104948671Y-64716071D01*
X104948671Y-64716071D02*
X104948671Y-64487500D01*
X104948671Y-64487500D02*
X104977242Y-64430357D01*
X104977242Y-64430357D02*
X105005814Y-64401786D01*
X105005814Y-64401786D02*
X105062957Y-64373214D01*
X105062957Y-64373214D02*
X105148671Y-64373214D01*
X105148671Y-64373214D02*
X105205814Y-64401786D01*
X105205814Y-64401786D02*
X105234385Y-64430357D01*
X105234385Y-64430357D02*
X105262957Y-64487500D01*
X105262957Y-64487500D02*
X105262957Y-64716071D01*
X105005814Y-64144643D02*
X104977242Y-64116071D01*
X104977242Y-64116071D02*
X104948671Y-64058929D01*
X104948671Y-64058929D02*
X104948671Y-63916071D01*
X104948671Y-63916071D02*
X104977242Y-63858929D01*
X104977242Y-63858929D02*
X105005814Y-63830357D01*
X105005814Y-63830357D02*
X105062957Y-63801786D01*
X105062957Y-63801786D02*
X105120100Y-63801786D01*
X105120100Y-63801786D02*
X105205814Y-63830357D01*
X105205814Y-63830357D02*
X105548671Y-64173214D01*
X105548671Y-64173214D02*
X105548671Y-63801786D01*
X105148671Y-63287500D02*
X105548671Y-63287500D01*
X104920100Y-63430357D02*
X105348671Y-63573214D01*
X105348671Y-63573214D02*
X105348671Y-63201785D01*
D13*
%TO.C,C2*%
X103995000Y-66200000D02*
X102195000Y-66200000D01*
X103995000Y-52405000D02*
X103995000Y-66200000D01*
X103995000Y-52405000D02*
X102195000Y-52405000D01*
X101055000Y-66200000D02*
X99255000Y-66200000D01*
X101055000Y-52405000D02*
X99255000Y-52405000D01*
X99255000Y-52405000D02*
X99255000Y-66175000D01*
%TO.C,R22*%
X103877064Y-56785000D02*
X102422936Y-56785000D01*
X103877064Y-54965000D02*
X102422936Y-54965000D01*
%TO.C,DZ1*%
X112160000Y-57200000D02*
X109500000Y-57200000D01*
X112160000Y-58900000D02*
X109500000Y-58900000D01*
X112160000Y-58900000D02*
X112160000Y-57200000D01*
%TO.C,D4*%
X107750000Y-59090000D02*
X107750000Y-61750000D01*
X109450000Y-59090000D02*
X107750000Y-59090000D01*
X109450000Y-59090000D02*
X109450000Y-61750000D01*
%TO.C,D2*%
X124940000Y-55825000D02*
X124940000Y-57525000D01*
X124940000Y-55825000D02*
X127600000Y-55825000D01*
X124940000Y-57525000D02*
X127600000Y-57525000D01*
%TO.C,D3*%
X128160000Y-62725000D02*
X125500000Y-62725000D01*
X128160000Y-64425000D02*
X125500000Y-64425000D01*
X128160000Y-64425000D02*
X128160000Y-62725000D01*
%TO.C,HS2*%
X115125000Y-55975000D02*
G75*
G02*
X113325000Y-55975000I-900000J0D01*
G01*
X113325000Y-55975000D02*
G75*
G02*
X115125000Y-55975000I900000J0D01*
G01*
%TO.C,D1*%
X123050000Y-54090000D02*
X123050000Y-56750000D01*
X124750000Y-54090000D02*
X123050000Y-54090000D01*
X124750000Y-54090000D02*
X124750000Y-56750000D01*
%TO.C,TP2*%
X108250000Y-53500000D02*
G75*
G02*
X106450000Y-53500000I-900000J0D01*
G01*
X106450000Y-53500000D02*
G75*
G02*
X108250000Y-53500000I900000J0D01*
G01*
%TO.C,TP4*%
X108375000Y-65450000D02*
G75*
G02*
X106575000Y-65450000I-900000J0D01*
G01*
X106575000Y-65450000D02*
G75*
G02*
X108375000Y-65450000I900000J0D01*
G01*
D14*
%TO.C,U2*%
X117016600Y-63805800D02*
X121258400Y-63805800D01*
X121258400Y-54814200D02*
X117016600Y-54814200D01*
D15*
G36*
X123094299Y-60770500D02*
G01*
X122840299Y-60770500D01*
X122840299Y-60389500D01*
X123094299Y-60389500D01*
X123094299Y-60770500D01*
G37*
D13*
%TO.C,R6*%
X127140000Y-60647936D02*
X127140000Y-61102064D01*
X128610000Y-60647936D02*
X128610000Y-61102064D01*
%TO.C,TP1*%
X132700000Y-60025000D02*
G75*
G02*
X130900000Y-60025000I-900000J0D01*
G01*
X130900000Y-60025000D02*
G75*
G02*
X132700000Y-60025000I900000J0D01*
G01*
%TO.C,HS1*%
X115225000Y-53150000D02*
G75*
G02*
X113425000Y-53150000I-900000J0D01*
G01*
X113425000Y-53150000D02*
G75*
G02*
X115225000Y-53150000I900000J0D01*
G01*
%TO.C,TP3*%
X117475000Y-53150000D02*
G75*
G02*
X115675000Y-53150000I-900000J0D01*
G01*
X115675000Y-53150000D02*
G75*
G02*
X117475000Y-53150000I900000J0D01*
G01*
%TO.C,R23*%
X104365000Y-60064564D02*
X104365000Y-58610436D01*
X106185000Y-60064564D02*
X106185000Y-58610436D01*
%TO.C,R3*%
X123165000Y-61739564D02*
X123165000Y-61285436D01*
X124635000Y-61739564D02*
X124635000Y-61285436D01*
%TO.C,R7*%
X125165000Y-59135436D02*
X125165000Y-59589564D01*
X126635000Y-59135436D02*
X126635000Y-59589564D01*
%TO.C,R21*%
X100940000Y-59197936D02*
X100940000Y-60652064D01*
X102760000Y-59197936D02*
X102760000Y-60652064D01*
%TO.C,R1*%
X131227064Y-56890000D02*
X129772936Y-56890000D01*
X131227064Y-58710000D02*
X129772936Y-58710000D01*
%TO.C,TP5*%
X110500000Y-65450000D02*
G75*
G02*
X108700000Y-65450000I-900000J0D01*
G01*
X108700000Y-65450000D02*
G75*
G02*
X110500000Y-65450000I900000J0D01*
G01*
%TO.C,R8*%
X111527064Y-59265000D02*
X111072936Y-59265000D01*
X111527064Y-60735000D02*
X111072936Y-60735000D01*
%TO.C,R24*%
X104365000Y-64714564D02*
X104365000Y-63260436D01*
X106185000Y-64714564D02*
X106185000Y-63260436D01*
%TD*%
M02*
